<?xml version="1.0" encoding="UTF-8" standalone="no"?>
<svg xmlns="http://www.w3.org/2000/svg" xmlns:xlink="http://www.w3.org/1999/xlink" version="1" width="235.24762" height="251.04654">
  <defs>
    <linearGradient id="linearGradient3000">
      <stop style="stop-color:#000000;stop-opacity:0.39215687" offset="0"/>
      <stop style="stop-color:#000000;stop-opacity:0" offset="1"/>
    </linearGradient>
    <linearGradient id="linearGradient2991">
      <stop style="stop-color:#fff700;stop-opacity:1" offset="0"/>
      <stop style="stop-color:#ff8e00;stop-opacity:1" offset="1"/>
    </linearGradient>
    <linearGradient id="linearGradient2979">
      <stop style="stop-color:#dee5f4;stop-opacity:1" offset="0"/>
      <stop style="stop-color:#747a92;stop-opacity:1" offset="1"/>
    </linearGradient>
    <linearGradient id="linearGradient2984">
      <stop style="stop-color:#ffffff;stop-opacity:1" offset="0"/>
      <stop style="stop-color:#ffffff;stop-opacity:0" offset="1"/>
    </linearGradient>
    <radialGradient cx="48.594395" cy="1101.0496" r="31.845842" fx="48.594395" fy="1101.0496" id="radialGradient3555" xlink:href="#linearGradient3000" gradientUnits="userSpaceOnUse" gradientTransform="scale(2.157585,0.463481)"/>
    <radialGradient cx="48.594395" cy="1101.0496" r="31.845842" fx="48.594395" fy="1101.0496" id="radialGradient3557" xlink:href="#linearGradient3000" gradientUnits="userSpaceOnUse" gradientTransform="scale(2.157585,0.463481)"/>
    <linearGradient x1="216.47505" y1="198.10153" x2="171.147" y2="73.230858" id="linearGradient3559" xlink:href="#linearGradient2979" gradientUnits="userSpaceOnUse" gradientTransform="scale(0.977355,1.02317)"/>
    <linearGradient x1="146.52391" y1="200.60095" x2="139.02554" y2="76.863205" id="linearGradient3561" xlink:href="#linearGradient3000" gradientUnits="userSpaceOnUse" gradientTransform="scale(0.816232,1.225143)"/>
    <linearGradient x1="146.52391" y1="200.60095" x2="139.02554" y2="76.863205" id="linearGradient3563" xlink:href="#linearGradient3000" gradientUnits="userSpaceOnUse" gradientTransform="matrix(0.877312,0,0,1.35409,-9.949676,-15.93499)"/>
    <linearGradient x1="233.42126" y1="50.769344" x2="231.59184" y2="147.83969" id="linearGradient3565" xlink:href="#linearGradient2984" gradientUnits="userSpaceOnUse" gradientTransform="scale(0.847717,1.179639)"/>
    <linearGradient x1="122.32335" y1="128.38135" x2="123.6971" y2="160.49329" id="linearGradient3567" xlink:href="#linearGradient2979" gradientUnits="userSpaceOnUse" gradientTransform="scale(1.598277,0.625674)"/>
    <linearGradient x1="121.56956" y1="158.70644" x2="122.9226" y2="190.33418" id="linearGradient3569" xlink:href="#linearGradient2979" gradientUnits="userSpaceOnUse" gradientTransform="scale(1.606578,0.622441)"/>
    <linearGradient x1="271.4765" y1="166.56679" x2="256.74417" y2="125.2625" id="linearGradient3571" xlink:href="#linearGradient3000" gradientUnits="userSpaceOnUse" gradientTransform="scale(0.768115,1.301889)"/>
    <linearGradient x1="85.997665" y1="210.65846" x2="79.453842" y2="172.33038" id="linearGradient3573" xlink:href="#linearGradient2979" gradientUnits="userSpaceOnUse"/>
    <linearGradient x1="79.259674" y1="176.59102" x2="69.298241" y2="79.391563" id="linearGradient3575" xlink:href="#linearGradient2979" gradientUnits="userSpaceOnUse" gradientTransform="matrix(1.015953,0,0,0.984297,-1.875,0.625)"/>
    <linearGradient x1="131.51102" y1="65.556458" x2="99.187386" y2="100.41222" id="linearGradient3577" xlink:href="#linearGradient2979" gradientUnits="userSpaceOnUse" gradientTransform="scale(1.015805,0.98444)"/>
    <linearGradient x1="79.259674" y1="176.59102" x2="69.298241" y2="79.391563" id="linearGradient3579" xlink:href="#linearGradient2979" gradientUnits="userSpaceOnUse" gradientTransform="scale(1.015953,0.984297)"/>
    <linearGradient x1="52.874111" y1="167.85587" x2="48.997128" y2="77.001305" id="linearGradient3581" xlink:href="#linearGradient2991" gradientUnits="userSpaceOnUse" gradientTransform="scale(1.046727,0.955359)"/>
    <linearGradient x1="44.634335" y1="462.63409" x2="39.178116" y2="437.71384" id="linearGradient3583" xlink:href="#linearGradient2984" gradientUnits="userSpaceOnUse" gradientTransform="scale(2.284372,0.437757)"/>
    <linearGradient x1="59.820393" y1="85.529762" x2="61.891071" y2="199.20726" id="linearGradient3585" xlink:href="#linearGradient2984" gradientUnits="userSpaceOnUse" gradientTransform="scale(1.306617,0.765335)"/>
  </defs>
  <g transform="translate(-1.3589625,30.225644)">
    <path d="m 173.55663,510.3158 c 0.008,8.1529 -30.75695,14.76303 -68.7101,14.76303 -37.953155,0 -68.718039,-6.61013 -68.710109,-14.76303 -0.0079,-8.1529 30.756954,-14.76303 68.710109,-14.76303 37.95315,0 68.71803,6.61013 68.7101,14.76303 l 0,0 z" transform="matrix(0.940119,-0.124165,0.376587,0.821327,-213.4198,-213.7047)" style="fill:url(#radialGradient3555);fill-opacity:1;fill-rule:evenodd;stroke:none"/>
    <path d="m 173.55663,510.3158 c 0.008,8.1529 -30.75695,14.76303 -68.7101,14.76303 -37.953155,0 -68.718039,-6.61013 -68.710109,-14.76303 -0.0079,-8.1529 30.756954,-14.76303 68.710109,-14.76303 37.95315,0 68.71803,6.61013 68.7101,14.76303 l 0,0 z" transform="matrix(1.711735,0.102817,-0.102817,1.711735,-8.017553,-689.7307)" style="fill:url(#radialGradient3557);fill-opacity:1;fill-rule:evenodd;stroke:none"/>
    <g transform="matrix(0.33812884,0,0,0.33812884,114.88415,-41.829288)">
      <path d="M 58.954538,347.23395 C -9.0375362,242.85087 73.060087,233.52847 52.118826,90.624027 103.47625,158.04097 117.81456,240.73539 139.37527,265.19403 c 14.88035,19.20859 22.21919,42.39489 20.21849,66.21726 -0.20173,18.85366 23.6251,41.69831 17.1098,59.3005 -34.64389,-27.74877 -94.232504,-9.66226 -117.749022,-43.47784 z" style="fill:#e73900;fill-opacity:1;fill-rule:evenodd;stroke:none"/>
      <path d="m 161.7809,377.71368 c 0.39304,-19.99024 -23.79616,-28.66237 -33.52622,-44.27447 -16.1147,-11.92496 -21.21929,-30.48684 -21.57498,-48.76583 -1.3098,-29.23369 24.74827,-203.542593 62.71113,-250.356153 -14.5484,71.885963 21.56903,167.642523 43.88285,199.320793 15.09957,24.61357 20.77625,52.95275 15.3373,80.83768 -2.67223,22.24724 -21.10113,35.61534 -31.07052,55.56907 -9.97252,12.01678 -23.54409,13.15533 -35.75956,7.66891 z" style="fill:#e73900;fill-opacity:1;fill-rule:evenodd;stroke:none"/>
      <path d="m 175.5607,387.49258 c 5.78662,-17.36703 -5.66486,-44.89494 -9.27092,-61.00222 -9.78333,-14.50379 -8.83797,-32.01615 -4.1256,-48.07773 6.93672,-25.87513 8.08193,-147.98087 120.02513,-205.321883 -86.81755,85.182623 -29.17042,154.410883 -19.77233,187.745483 5.49049,25.33327 2.68381,51.73715 -9.69747,74.51982 -17.09362,31.45379 -62.73308,48.78925 -77.15881,52.13653 z" style="fill:#e73900;fill-opacity:1;fill-rule:evenodd;stroke:none"/>
      <path d="m 157.11595,377.31308 c 0.29729,-16.31975 -17.99897,-23.39955 -25.35861,-36.14505 -12.18886,-9.73537 -16.04987,-24.88902 -16.31891,-39.81173 -0.99071,-23.86597 23.32574,-150.04614 42.82692,-204.387226 -13.30745,123.179276 20.92102,136.860986 37.79878,162.722676 11.42103,20.09417 15.71477,43.22988 11.60085,65.99474 -2.02123,18.16233 -10.73397,34.71702 -18.27463,51.00696 -7.54302,9.81033 -23.03485,5.09867 -32.2744,0.61963 z" style="fill:#e78c00;fill-opacity:1;fill-rule:evenodd;stroke:none"/>
      <path d="m 86.962916,353.92652 c -69.840645,-71.70464 6.256738,-76.69827 -13.112495,-175.17471 23.002985,46.4166 42.077879,81.28576 50.453849,114.24383 12.39538,11.63807 55.22529,82.68294 52.65834,95.56353 -26.99224,-15.36667 -69.88969,-13.98593 -89.999694,-34.63265 z" style="fill:#e78c00;fill-opacity:1;fill-rule:evenodd;stroke:none"/>
      <path d="M 100.90993,349.60902 C 59.13153,309.94963 90.331519,286.66405 89.958257,237.12916 c 11.549273,43.35274 48.079753,54.03502 47.610733,80.07767 6.03491,7.79028 37.6343,63.34456 34.99194,70.48334 -14.05024,-11.25385 -55.82176,-23.05478 -71.651,-38.08115 z" style="fill:#e7e100;fill-opacity:1;fill-rule:evenodd;stroke:none"/>
      <path d="m 168.06466,344.26386 c -7.34039,-10.88214 -6.63109,-24.0216 -3.09542,-36.07254 5.2046,-19.41401 28.07134,-127.32404 60.73809,-150.79486 -23.59103,44.36027 7.42986,112.59653 14.48121,137.60735 4.11949,19.00746 5.27165,41.48988 -7.27598,55.91194 -18.9554,21.78707 -42.88182,34.47506 -56.28999,37.51705 -8.52364,5.98155 -5.85229,-32.08371 -8.55791,-44.16894 z" style="fill:#e78c00;fill-opacity:1;fill-rule:evenodd;stroke:none"/>
      <path d="m 156.26263,378.50754 c 0.58986,-9.98438 -10.43516,-14.77626 -14.6226,-22.76365 -7.21937,-6.26512 -9.20458,-15.63948 -8.99637,-24.78268 -0.0101,-14.63677 -0.50958,-105.87648 18.02599,-128.55794 -8.20394,35.6561 22.69143,88.8079 32.37859,105.06359 6.49038,12.58815 8.54105,26.86036 5.45339,40.69541 -1.69139,11.06943 -7.43952,20.98736 -12.46341,30.77248 -4.86341,5.81789 -14.23058,2.54602 -19.77559,-0.42721 z" style="fill:#e7e100;fill-opacity:1;fill-rule:evenodd;stroke:none"/>
      <path d="m 165.07971,379.78285 c 4.74577,-6.95045 -1.13754,-15.17906 -0.70358,-22.75532 -2.49934,-7.6452 0.12406,-15.26957 4.23044,-21.77806 6.32576,-10.56763 17.44222,-89.10138 40.63311,-97.45039 -21.34853,22.18304 15.72363,81.49477 15.68122,97.41785 -0.76263,11.89305 -15.23012,27.96655 -23.44465,36.61523 -6.01023,7.25688 -17.90489,14.23077 -25.76444,19.11887 -6.02721,-3.66386 -7.91678,-6.6232 -10.6321,-11.16818 z" style="fill:#e7e100;fill-opacity:1;fill-rule:evenodd;stroke:none"/>
      <path d="m 157.0795,371.83477 c -14.75607,-23.24143 -9.28153,-49.17026 -3.00634,-77.45115 2.85864,19.18916 14.76662,42.47567 21.49823,50.11206 4.64589,5.99724 6.9372,13.23638 6.31255,20.67411 -0.063,5.88643 -3.05125,13.0189 -5.08543,18.5146 -10.8164,-8.66363 -12.37677,-1.29185 -19.71901,-11.84962 z" style="fill:#ffff9e;fill-opacity:1;fill-rule:evenodd;stroke:none"/>
      <path d="m 173.66742,360.30753 c 11.43123,-25.04462 0.11491,-44.76145 26.31412,-64.40898 -7.82358,18.2147 10.06971,46.97556 8.12273,56.94846 -3.27428,16.7716 -25.8851,29.25442 -31.60084,30.54705 1.36171,-13.79126 -7.68024,-11.174 -2.83601,-23.08653 z" style="fill:#ffff9e;fill-opacity:1;fill-rule:evenodd;stroke:none"/>
      <path d="M 92.049535,278.33689 C 153.50277,356.0529 152.14455,316.81741 176.51446,383.37417 60.355771,331.65699 112.48851,336.32499 92.049535,278.33689 z" style="fill:#ffff9e;fill-opacity:1;fill-rule:evenodd;stroke:none"/>
    </g>
    <g transform="translate(0,75)">
      <path d="m 168.65587,72.330023 56.54429,3.87882 L 221.7842,198.54725 169.31652,206.3112 98.77599,189.11266 97.260299,80.427198 168.65587,72.330023 z" transform="translate(0,-75)" style="fill:url(#linearGradient3559);fill-opacity:1;fill-rule:evenodd;stroke:#000000;stroke-width:0.9375;stroke-linecap:butt;stroke-linejoin:round;stroke-miterlimit:4;stroke-opacity:1"/>
      <path d="m 102.89328,117.91922 0.89443,66.3121 59.24054,12.30015 -0.4652,-86.06109 c -19.26492,-16.892053 -39.77985,23.71589 -59.66977,7.44884 z" transform="translate(0,-75)" style="fill:url(#linearGradient3561);fill-opacity:1;fill-rule:evenodd;stroke:none"/>
      <path d="m 100.64328,114.39526 0.96136,73.29147 63.67361,13.59474 -0.50001,-95.11904 c -20.70655,-18.66995 -42.75664,26.21199 -64.13496,8.23283 z" transform="translate(0,-75)" style="fill:url(#linearGradient3563);fill-opacity:1;fill-rule:evenodd;stroke:none"/>
      <path d="m 171.34995,74.897795 -0.87277,73.182045 c 29.33121,-32.58838 28.29052,14.33468 50.11006,-4.3824 l 2.61831,-65.671505 -51.8556,-3.12814 z" transform="translate(0,-75)" style="fill:url(#linearGradient3565);fill-opacity:1;fill-rule:evenodd;stroke:none"/>
      <path d="m 177.48285,82.517255 -0.43638,13.582731 40.95474,1.696523 0.0191,-12.906594 -40.53744,-2.37266 z" transform="translate(0,-75)" style="fill:url(#linearGradient3567);fill-opacity:1;fill-rule:evenodd;stroke:#000000;stroke-width:1.25;stroke-linecap:butt;stroke-linejoin:bevel;stroke-miterlimit:4;stroke-opacity:0.39215686"/>
      <path d="m 177.47737,100.94619 -0.43639,14.5909 40.55316,0.35501 -0.005,-13.56787 -40.1118,-1.37804 z" transform="translate(0,-75)" style="fill:url(#linearGradient3569);fill-opacity:1;fill-rule:evenodd;stroke:#000000;stroke-width:1.25;stroke-linecap:butt;stroke-linejoin:bevel;stroke-miterlimit:4;stroke-opacity:0.39215686"/>
      <path d="m 217.5,164.375 c 0,17.2589 -8.25475,31.25 -18.4375,31.25 -10.18275,0 -18.4375,-13.9911 -18.4375,-31.25 0,-17.2589 8.25475,-31.25 18.4375,-31.25 10.18275,0 18.4375,13.9911 18.4375,31.25 z" transform="matrix(1.1995,0,0,1,-43.46294,-75)" style="fill:url(#linearGradient3571);fill-opacity:1;stroke:none"/>
    </g>
    <g transform="translate(150,0)">
      <path d="m 68.78151,152.51618 -11.29487,39.91256 0,6.07614 24.304541,12.15228 36.456799,-3.78926 0,-6.07614 -32.475964,-8.97545 8.171427,-41.92051 -25.161933,2.62038 z" transform="translate(-150,0)" style="fill:url(#linearGradient3573);fill-opacity:1;fill-rule:evenodd;stroke:#000000;stroke-width:0.9375;stroke-linecap:butt;stroke-linejoin:round;stroke-miterlimit:4;stroke-opacity:1"/>
      <path d="m 68.77909,153.94752 5.2057,1.53108 -11.33006,38.88969 18.066866,8.26788 0.306215,6.43056 -22.966351,-11.02382 0.30622,-5.81815 10.41141,-38.27724 z" transform="translate(-150,0)" style="fill:#000000;fill-opacity:0.31097562;fill-rule:evenodd;stroke:none"/>
      <path d="m 24.2993,63.8626 109.37042,2.449741 6.07613,97.218149 L 30.37544,175.68275 24.2993,63.8626 z" transform="translate(-150,0)" style="fill:url(#linearGradient3575);fill-opacity:1;fill-rule:evenodd;stroke:url(#linearGradient3577);stroke-width:2;stroke-linecap:butt;stroke-linejoin:round;stroke-miterlimit:4;stroke-opacity:1"/>
      <path d="m 26.1743,63.2376 109.37042,2.449741 6.07613,97.218149 L 32.25044,175.05775 26.1743,63.2376 z" transform="translate(-150,0)" style="fill:url(#linearGradient3579);fill-opacity:1;fill-rule:evenodd;stroke:#000000;stroke-width:0.9375;stroke-linecap:butt;stroke-linejoin:round;stroke-miterlimit:4;stroke-opacity:1"/>
      <path d="m 35.99156,72.467003 5.24711,87.636147 90.94974,-7.49521 -3.49806,-79.564398 -92.69879,-0.576539 z" transform="translate(-150,0)" style="fill:url(#linearGradient3581);fill-opacity:1;fill-rule:evenodd;stroke:#000000;stroke-width:1.875;stroke-linecap:round;stroke-linejoin:round;stroke-miterlimit:4;stroke-opacity:0.19607843"/>
      <path d="m 64.18582,194.36829 19.904163,-1.22488 28.034427,7.48685 -29.577302,1.69968 -18.361288,-7.96165 z" transform="translate(-150,0)" style="fill:url(#linearGradient3583);fill-opacity:1;fill-rule:evenodd;stroke:none"/>
      <path d="m 41.63693,76.16683 2.46861,48.13766 c 12.54871,-27.566008 76.32083,24.48028 82.08089,-12.34298 L 124.335,77.401123 41.63693,76.16683 z" transform="translate(-150,0)" style="fill:url(#linearGradient3585);fill-opacity:1;fill-rule:evenodd;stroke:none"/>
      <rect width="6.875" height="1.875" rx="6.165308" ry="1.875" x="-85.625" y="33.75" style="fill:none;stroke:none"/>
    </g>
    <g transform="matrix(0.19483715,0,0,0.19483715,57.050649,72.943591)">
      <path d="M 58.954538,347.23395 C -9.0375362,242.85087 73.060087,233.52847 52.118826,90.624027 103.47625,158.04097 117.81456,240.73539 139.37527,265.19403 c 14.88035,19.20859 22.21919,42.39489 20.21849,66.21726 -0.20173,18.85366 23.6251,41.69831 17.1098,59.3005 -34.64389,-27.74877 -94.232504,-9.66226 -117.749022,-43.47784 z" style="fill:#e73900;fill-opacity:1;fill-rule:evenodd;stroke:none"/>
      <path d="m 161.7809,377.71368 c 0.39304,-19.99024 -23.79616,-28.66237 -33.52622,-44.27447 -16.1147,-11.92496 -21.21929,-30.48684 -21.57498,-48.76583 -1.3098,-29.23369 24.74827,-203.542593 62.71113,-250.356153 -14.5484,71.885963 21.56903,167.642523 43.88285,199.320793 15.09957,24.61357 20.77625,52.95275 15.3373,80.83768 -2.67223,22.24724 -21.10113,35.61534 -31.07052,55.56907 -9.97252,12.01678 -23.54409,13.15533 -35.75956,7.66891 z" style="fill:#e73900;fill-opacity:1;fill-rule:evenodd;stroke:none"/>
      <path d="m 175.5607,387.49258 c 5.78662,-17.36703 -5.66486,-44.89494 -9.27092,-61.00222 -9.78333,-14.50379 -8.83797,-32.01615 -4.1256,-48.07773 6.93672,-25.87513 8.08193,-147.98087 120.02513,-205.321883 -86.81755,85.182623 -29.17042,154.410883 -19.77233,187.745483 5.49049,25.33327 2.68381,51.73715 -9.69747,74.51982 -17.09362,31.45379 -62.73308,48.78925 -77.15881,52.13653 z" style="fill:#e73900;fill-opacity:1;fill-rule:evenodd;stroke:none"/>
      <path d="m 157.11595,377.31308 c 0.29729,-16.31975 -17.99897,-23.39955 -25.35861,-36.14505 -12.18886,-9.73537 -16.04987,-24.88902 -16.31891,-39.81173 -0.99071,-23.86597 23.32574,-150.04614 42.82692,-204.387226 -13.30745,123.179276 20.92102,136.860986 37.79878,162.722676 11.42103,20.09417 15.71477,43.22988 11.60085,65.99474 -2.02123,18.16233 -10.73397,34.71702 -18.27463,51.00696 -7.54302,9.81033 -23.03485,5.09867 -32.2744,0.61963 z" style="fill:#e78c00;fill-opacity:1;fill-rule:evenodd;stroke:none"/>
      <path d="m 86.962916,353.92652 c -69.840645,-71.70464 6.256738,-76.69827 -13.112495,-175.17471 23.002985,46.4166 42.077879,81.28576 50.453849,114.24383 12.39538,11.63807 55.22529,82.68294 52.65834,95.56353 -26.99224,-15.36667 -69.88969,-13.98593 -89.999694,-34.63265 z" style="fill:#e78c00;fill-opacity:1;fill-rule:evenodd;stroke:none"/>
      <path d="M 100.90993,349.60902 C 59.13153,309.94963 90.331519,286.66405 89.958257,237.12916 c 11.549273,43.35274 48.079753,54.03502 47.610733,80.07767 6.03491,7.79028 37.6343,63.34456 34.99194,70.48334 -14.05024,-11.25385 -55.82176,-23.05478 -71.651,-38.08115 z" style="fill:#e7e100;fill-opacity:1;fill-rule:evenodd;stroke:none"/>
      <path d="m 168.06466,344.26386 c -7.34039,-10.88214 -6.63109,-24.0216 -3.09542,-36.07254 5.2046,-19.41401 28.07134,-127.32404 60.73809,-150.79486 -23.59103,44.36027 7.42986,112.59653 14.48121,137.60735 4.11949,19.00746 5.27165,41.48988 -7.27598,55.91194 -18.9554,21.78707 -42.88182,34.47506 -56.28999,37.51705 -8.52364,5.98155 -5.85229,-32.08371 -8.55791,-44.16894 z" style="fill:#e78c00;fill-opacity:1;fill-rule:evenodd;stroke:none"/>
      <path d="m 156.26263,378.50754 c 0.58986,-9.98438 -10.43516,-14.77626 -14.6226,-22.76365 -7.21937,-6.26512 -9.20458,-15.63948 -8.99637,-24.78268 -0.0101,-14.63677 -0.50958,-105.87648 18.02599,-128.55794 -8.20394,35.6561 22.69143,88.8079 32.37859,105.06359 6.49038,12.58815 8.54105,26.86036 5.45339,40.69541 -1.69139,11.06943 -7.43952,20.98736 -12.46341,30.77248 -4.86341,5.81789 -14.23058,2.54602 -19.77559,-0.42721 z" style="fill:#e7e100;fill-opacity:1;fill-rule:evenodd;stroke:none"/>
      <path d="m 165.07971,379.78285 c 4.74577,-6.95045 -1.13754,-15.17906 -0.70358,-22.75532 -2.49934,-7.6452 0.12406,-15.26957 4.23044,-21.77806 6.32576,-10.56763 17.44222,-89.10138 40.63311,-97.45039 -21.34853,22.18304 15.72363,81.49477 15.68122,97.41785 -0.76263,11.89305 -15.23012,27.96655 -23.44465,36.61523 -6.01023,7.25688 -17.90489,14.23077 -25.76444,19.11887 -6.02721,-3.66386 -7.91678,-6.6232 -10.6321,-11.16818 z" style="fill:#e7e100;fill-opacity:1;fill-rule:evenodd;stroke:none"/>
      <path d="m 157.0795,371.83477 c -14.75607,-23.24143 -9.28153,-49.17026 -3.00634,-77.45115 2.85864,19.18916 14.76662,42.47567 21.49823,50.11206 4.64589,5.99724 6.9372,13.23638 6.31255,20.67411 -0.063,5.88643 -3.05125,13.0189 -5.08543,18.5146 -10.8164,-8.66363 -12.37677,-1.29185 -19.71901,-11.84962 z" style="fill:#ffff9e;fill-opacity:1;fill-rule:evenodd;stroke:none"/>
      <path d="m 173.66742,360.30753 c 11.43123,-25.04462 0.11491,-44.76145 26.31412,-64.40898 -7.82358,18.2147 10.06971,46.97556 8.12273,56.94846 -3.27428,16.7716 -25.8851,29.25442 -31.60084,30.54705 1.36171,-13.79126 -7.68024,-11.174 -2.83601,-23.08653 z" style="fill:#ffff9e;fill-opacity:1;fill-rule:evenodd;stroke:none"/>
      <path d="M 92.049535,278.33689 C 153.50277,356.0529 152.14455,316.81741 176.51446,383.37417 60.355771,331.65699 112.48851,336.32499 92.049535,278.33689 z" style="fill:#ffff9e;fill-opacity:1;fill-rule:evenodd;stroke:none"/>
    </g>
  </g>
</svg>
